<svg width="352" height="100" viewBox="0 0 352 100" fill="none" xmlns="http://www.w3.org/2000/svg">
<path d="M215.868 84.014C214.031 84.014 212.335 83.4133 210.78 82.212C209.225 81.0813 207.953 79.5267 206.964 77.548C204.915 73.2373 203.643 68.538 203.148 63.45C202.512 58.6447 202.194 54.016 202.194 49.564C202.194 48.716 202.229 48.0093 202.3 47.444V45.536C202.3 45.1827 202.265 45.006 202.194 45.006V43.098L202.3 35.678C202.371 33.4167 202.653 29.8127 203.148 24.866C203.501 21.474 204.314 18.188 205.586 15.008C206.081 13.5947 206.717 12.5347 207.494 11.828C208.271 11.0507 209.155 10.662 210.144 10.662C212.971 10.662 215.515 11.192 217.776 12.252C220.037 13.2413 221.945 14.6547 223.5 16.492C224.913 18.2587 226.115 20.4493 227.104 23.064C228.093 25.608 228.8 28.3287 229.224 31.226C229.648 34.194 229.86 37.3387 229.86 40.66V41.508C229.86 43.6987 229.895 45.6773 229.966 47.444L230.072 53.486C230.072 73.838 225.337 84.014 215.868 84.014ZM215.444 79.562C216.716 79.562 217.882 79.0673 218.942 78.078C220.002 77.018 220.815 75.6047 221.38 73.838C222.723 70.234 223.535 66.3473 223.818 62.178C224.171 58.574 224.348 55.4647 224.348 52.85C224.348 49.67 224.101 45.5007 223.606 40.342C223.182 34.9007 222.97 30.8373 222.97 28.152V26.244C222.829 23.5587 221.91 21.2267 220.214 19.248C218.589 17.2693 216.575 16.28 214.172 16.28C211.769 16.28 210.179 17.658 209.402 20.414C208.695 22.6047 208.342 25.4313 208.342 28.894C208.342 30.2367 208.377 31.3673 208.448 32.286V35.148L208.236 40.024C208.095 41.508 208.024 43.1333 208.024 44.9C208.024 48.716 208.13 52.4967 208.342 56.242C208.625 61.542 209.331 66.7007 210.462 71.718C211.593 76.9473 213.253 79.562 215.444 79.562ZM255.867 83.484C254.313 83.484 252.652 83.2367 250.885 82.742C249.189 82.318 247.882 81.8233 246.963 81.258C242.229 78.2193 239.861 69.916 239.861 56.348V53.486V50.2V47.656C239.861 44.8293 239.897 42.3207 239.967 40.13C240.038 37.8687 240.179 35.4307 240.391 32.816C240.603 30.06 240.921 27.834 241.345 26.138C241.769 24.3713 242.476 22.3927 243.465 20.202C244.313 18.1527 245.338 16.5627 246.539 15.432C247.811 14.3013 249.437 13.3473 251.415 12.57C253.182 11.7927 255.373 11.404 257.987 11.404C259.047 11.404 259.86 11.6513 260.425 12.146C260.991 12.6407 261.273 13.2767 261.273 14.054C261.273 14.7607 261.026 15.3967 260.531 15.962C260.107 16.5273 259.577 16.8453 258.941 16.916H253.959C252.546 16.916 251.309 17.7993 250.249 19.566C249.189 21.3327 248.447 23.6293 248.023 26.456C247.105 31.6853 246.645 35.9253 246.645 39.176V39.706L246.433 49.882C246.292 52.9207 246.221 56.348 246.221 60.164C246.221 62.8493 246.327 65.04 246.539 66.736C246.893 69.28 247.493 71.4 248.341 73.096C249.189 75.004 250.638 76.382 252.687 77.23C253.747 77.654 254.913 77.866 256.185 77.866C256.963 77.866 257.74 77.5833 258.517 77.018C259.436 77.018 260.178 77.23 260.743 77.654C261.379 78.0073 261.697 78.5727 261.697 79.35C261.697 82.106 259.754 83.484 255.867 83.484ZM289.925 82C287.522 82 286.321 76.17 286.321 64.51L286.427 58.468L286.533 53.592V53.274V52.214C286.603 51.6487 286.639 50.9773 286.639 50.2C286.639 50.0587 286.533 49.882 286.321 49.67C286.109 49.458 286.003 49.2813 286.003 49.14V49.034C285.649 49.1753 285.013 49.246 284.095 49.246C283.176 49.246 282.045 49.1047 280.703 48.822C280.279 48.7513 279.148 48.5747 277.311 48.292V60.482C277.311 62.3193 277.417 65.2167 277.629 69.174C277.841 73.0607 277.947 75.958 277.947 77.866C277.947 78.926 277.664 79.8447 277.099 80.622C276.533 81.3993 275.791 81.788 274.873 81.788C273.53 81.788 272.576 80.4807 272.011 77.866C271.445 75.1807 271.163 71.6827 271.163 67.372L271.375 58.786C271.445 56.3833 271.481 53.8393 271.481 51.154V49.352V47.868C271.481 46.7373 271.445 45.9953 271.375 45.642V45.112L271.693 38.964C271.693 36.2787 271.587 32.286 271.375 26.986C271.163 21.686 271.057 17.6933 271.057 15.008C271.057 14.16 271.339 13.418 271.905 12.782C272.47 12.146 273.177 11.828 274.025 11.828C276.286 11.828 277.417 13.948 277.417 18.188L277.205 31.332C277.063 35.2893 276.993 39.706 276.993 44.582C278.053 44.9353 279.961 45.112 282.717 45.112H286.639C286.78 44.688 286.851 44.264 286.851 43.84C286.851 40.448 286.639 35.4307 286.215 28.788C285.72 22.5693 285.473 17.5167 285.473 13.63C285.473 12.8527 285.755 12.2167 286.321 11.722C286.957 11.1567 287.699 10.874 288.547 10.874C289.041 10.874 289.748 11.0507 290.667 11.404L291.621 11.828C291.621 21.8627 291.974 35.254 292.681 52.002L293.635 78.82C293.635 79.8093 293.246 80.5867 292.469 81.152C291.762 81.7173 290.914 82 289.925 82ZM327.243 82.954C325.617 82.954 324.416 82.7067 323.639 82.212C322.861 81.7173 322.473 80.7987 322.473 79.456C322.473 77.336 322.119 73.732 321.413 68.644L320.989 66.418L310.495 64.828C310.071 66.4533 309.47 69.7393 308.693 74.686C308.269 78.1487 307.597 80.4453 306.679 81.576C306.184 82.212 305.477 82.53 304.559 82.53C303.711 82.53 302.933 82.2827 302.227 81.788C301.52 81.2227 301.167 80.5513 301.167 79.774L301.379 79.244L301.485 78.82C306.149 60.6587 309.682 42.7447 312.085 25.078C312.085 24.7953 312.12 24.336 312.191 23.7C312.261 22.9933 312.332 22.004 312.403 20.732C312.615 18.1173 312.827 16.0327 313.039 14.478C313.321 12.9233 313.745 11.7573 314.311 10.98H317.915C318.904 10.98 319.752 11.2273 320.459 11.722C321.165 12.146 321.519 12.782 321.519 13.63C321.519 19.0007 322.261 26.986 323.745 37.586C325.158 48.4687 325.865 56.1007 325.865 60.482C325.865 60.906 326.041 62.0013 326.395 63.768C326.748 65.3933 326.925 66.4533 326.925 66.948C326.925 67.4427 327.278 69.5627 327.985 73.308C328.621 76.7 328.939 78.8907 328.939 79.88V79.986C328.939 81.5407 328.373 82.53 327.243 82.954ZM320.247 62.602C320.035 61.542 319.929 60.2347 319.929 58.68C319.929 52.32 319.363 44.1933 318.233 34.3L317.173 23.276C314.134 39.8827 312.049 52.426 310.919 60.906C311.979 61.6127 315.088 62.178 320.247 62.602Z" fill="#583A3E"/>
<path d="M32.805 76.218V82.212H78.57V76.218H32.805ZM35.964 36.528V42.36H76.869V36.528H35.964ZM53.379 10.608V79.134H59.535V10.608H53.379ZM4.455 25.188V30.777H31.347V25.188H4.455ZM17.253 49.488V84.561H23.247V42.279L17.253 49.488ZM17.253 10.041V27.942H23.247V10.041H17.253ZM22.761 43.899L19.278 46.977C22.599 49.893 30.537 57.588 33.534 61.071L37.26 56.13C34.911 54.105 25.515 45.843 22.761 43.899ZM29.079 25.188V26.484C24.219 38.796 12.636 51.108 1.62 57.588C2.673 58.641 4.131 61.476 4.779 63.015C16.362 55.563 28.755 42.117 34.911 27.213L31.428 24.945L30.294 25.188H29.079ZM88.857 75.651L89.667 81.645C104.004 81.159 125.955 80.187 146.367 79.134L146.61 73.545C125.55 74.517 102.951 75.327 88.857 75.651ZM88.128 50.622V56.373H155.277V50.622H88.128ZM101.979 35.151V40.821H140.697V35.151H101.979ZM110.322 54.267C107.892 61.395 103.113 71.439 99.306 77.757L104.733 79.539C108.702 73.464 113.4 63.987 117.126 56.211L110.322 54.267ZM129.6 62.853C136.809 69.333 144.828 78.648 148.473 84.723L153.981 81.402C150.174 75.246 142.236 66.498 134.784 60.099L129.6 62.853ZM121.176 15.954C128.709 26.484 142.965 37.338 155.601 43.413C156.654 41.631 158.112 39.444 159.57 37.986C146.691 32.721 132.516 22.11 123.93 10.122H117.693C111.375 20.49 97.848 32.235 83.916 38.877C85.212 40.173 86.751 42.36 87.48 43.818C101.25 36.933 114.534 25.836 121.176 15.954Z" fill="#583A3E"/>
</svg>
