<svg width="54" height="46" viewBox="0 0 54 46" fill="none" xmlns="http://www.w3.org/2000/svg">
<path d="M45.1125 20.4492H8.8875C7.70699 20.4492 6.75 21.5149 6.75 22.8296V23.0802C6.75 24.3948 7.70699 25.4606 8.8875 25.4606H45.1125C46.293 25.4606 47.25 24.3948 47.25 23.0802V22.8296C47.25 21.5149 46.293 20.4492 45.1125 20.4492Z" fill="#583A3E"/>
<path d="M45.1125 32.9777H8.8875C7.70699 32.9777 6.75 34.0435 6.75 35.3581V35.6087C6.75 36.9234 7.70699 37.9891 8.8875 37.9891H45.1125C46.293 37.9891 47.25 36.9234 47.25 35.6087V35.3581C47.25 34.0435 46.293 32.9777 45.1125 32.9777Z" fill="#583A3E"/>
<path d="M45.1125 7.92062H8.8875C7.70699 7.92062 6.75 8.98637 6.75 10.301V10.5516C6.75 11.8663 7.70699 12.932 8.8875 12.932H45.1125C46.293 12.932 47.25 11.8663 47.25 10.5516V10.301C47.25 8.98637 46.293 7.92062 45.1125 7.92062Z" fill="#583A3E"/>
</svg>
