<svg width="41" height="43" viewBox="0 0 41 43" fill="none" xmlns="http://www.w3.org/2000/svg">
<path d="M22.1098 33.354L21.9929 12.5993L29.3811 18.9103C29.7271 19.2054 30.1719 19.3458 30.6176 19.3006C31.0632 19.2554 31.4733 19.0284 31.7575 18.6694C32.0417 18.3104 32.1769 17.8489 32.1331 17.3864C32.0894 16.9239 31.8705 16.4982 31.5244 16.2031L21.3571 7.51029C21.2763 7.45188 21.1914 7.39971 21.1032 7.35422C21.0189 7.35469 20.9683 7.35498 20.8833 7.23295C20.6895 7.15472 20.4835 7.11435 20.2756 7.11388C20.0677 7.11669 19.8621 7.15939 19.6692 7.23979C19.5849 7.24027 19.5343 7.24055 19.4506 7.36353C19.363 7.41001 19.2787 7.46313 19.1986 7.52245L9.12985 16.3293C8.94041 16.4949 8.78849 16.7018 8.68487 16.9353C8.58126 17.1688 8.5285 17.4231 8.53035 17.6802C8.53189 18.0891 8.67135 18.4846 8.92452 18.798C9.06709 18.9744 9.24178 19.1199 9.43858 19.2262C9.63539 19.3324 9.85044 19.3974 10.0714 19.4172C10.2924 19.4371 10.515 19.4116 10.7264 19.3421C10.9379 19.2725 11.134 19.1604 11.3035 19.0121L18.6202 12.6183L18.7371 33.373C18.7397 33.8371 18.9199 34.2812 19.238 34.6076C19.5561 34.934 19.9861 35.116 20.4333 35.1134C20.8805 35.1109 21.3084 34.9241 21.6228 34.5942C21.9372 34.2642 22.1124 33.8181 22.1098 33.354Z" fill="white"/>
</svg>
