<svg width="205" height="100" viewBox="0 0 205 100" fill="none" xmlns="http://www.w3.org/2000/svg">
<path d="M117.036 81.178C115.961 81.178 114.969 80.8267 114.06 80.124C113.151 79.4627 112.407 78.5533 111.828 77.396C110.629 74.8747 109.885 72.126 109.596 69.15C109.224 66.3393 109.038 63.632 109.038 61.028C109.038 60.532 109.059 60.1187 109.1 59.788V58.672C109.1 58.4653 109.079 58.362 109.038 58.362V57.246L109.1 52.906C109.141 51.5833 109.307 49.4753 109.596 46.582C109.803 44.598 110.278 42.676 111.022 40.816C111.311 39.9893 111.683 39.3693 112.138 38.956C112.593 38.5013 113.109 38.274 113.688 38.274C115.341 38.274 116.829 38.584 118.152 39.204C119.475 39.7827 120.591 40.6093 121.5 41.684C122.327 42.7173 123.029 43.9987 123.608 45.528C124.187 47.016 124.6 48.6073 124.848 50.302C125.096 52.038 125.22 53.8773 125.22 55.82V56.316C125.22 57.5973 125.241 58.7547 125.282 59.788L125.344 63.322C125.344 75.226 122.575 81.178 117.036 81.178ZM116.788 78.574C117.532 78.574 118.214 78.2847 118.834 77.706C119.454 77.086 119.929 76.2593 120.26 75.226C121.045 73.118 121.521 70.8447 121.686 68.406C121.893 66.298 121.996 64.4793 121.996 62.95C121.996 61.09 121.851 58.6513 121.562 55.634C121.314 52.4513 121.19 50.0747 121.19 48.504V47.388C121.107 45.8173 120.57 44.4533 119.578 43.296C118.627 42.1387 117.449 41.56 116.044 41.56C114.639 41.56 113.709 42.366 113.254 43.978C112.841 45.2593 112.634 46.9127 112.634 48.938C112.634 49.7233 112.655 50.3847 112.696 50.922V52.596L112.572 55.448C112.489 56.316 112.448 57.2667 112.448 58.3C112.448 60.532 112.51 62.7433 112.634 64.934C112.799 68.034 113.213 71.0513 113.874 73.986C114.535 77.0447 115.507 78.574 116.788 78.574ZM140.432 80.868C139.522 80.868 138.551 80.7233 137.518 80.434C136.526 80.186 135.761 79.8967 135.224 79.566C132.454 77.7887 131.07 72.932 131.07 64.996V63.322V61.4V59.912C131.07 58.2587 131.09 56.7913 131.132 55.51C131.173 54.1873 131.256 52.7613 131.38 51.232C131.504 49.62 131.69 48.318 131.938 47.326C132.186 46.2927 132.599 45.1353 133.178 43.854C133.674 42.6553 134.273 41.7253 134.976 41.064C135.72 40.4027 136.67 39.8447 137.828 39.39C138.861 38.9353 140.142 38.708 141.672 38.708C142.292 38.708 142.767 38.8527 143.098 39.142C143.428 39.4313 143.594 39.8033 143.594 40.258C143.594 40.6713 143.449 41.0433 143.16 41.374C142.912 41.7047 142.602 41.8907 142.23 41.932H139.316C138.489 41.932 137.766 42.4487 137.146 43.482C136.526 44.5153 136.092 45.8587 135.844 47.512C135.306 50.5707 135.038 53.0507 135.038 54.952V55.262L134.914 61.214C134.831 62.9913 134.79 64.996 134.79 67.228C134.79 68.7987 134.852 70.08 134.976 71.072C135.182 72.56 135.534 73.8 136.03 74.792C136.526 75.908 137.373 76.714 138.572 77.21C139.192 77.458 139.874 77.582 140.618 77.582C141.072 77.582 141.527 77.4167 141.982 77.086C142.519 77.086 142.953 77.21 143.284 77.458C143.656 77.6647 143.842 77.9953 143.842 78.45C143.842 80.062 142.705 80.868 140.432 80.868ZM160.352 80C158.947 80 158.244 76.59 158.244 69.77L158.306 66.236L158.368 63.384V63.198V62.578C158.41 62.2473 158.43 61.8547 158.43 61.4C158.43 61.3173 158.368 61.214 158.244 61.09C158.12 60.966 158.058 60.8627 158.058 60.78V60.718C157.852 60.8007 157.48 60.842 156.942 60.842C156.405 60.842 155.744 60.7593 154.958 60.594C154.71 60.5527 154.049 60.4493 152.974 60.284V67.414C152.974 68.4887 153.036 70.1833 153.16 72.498C153.284 74.7713 153.346 76.466 153.346 77.582C153.346 78.202 153.181 78.7393 152.85 79.194C152.52 79.6487 152.086 79.876 151.548 79.876C150.763 79.876 150.205 79.1113 149.874 77.582C149.544 76.0113 149.378 73.9653 149.378 71.444L149.502 66.422C149.544 65.0167 149.564 63.5287 149.564 61.958V60.904V60.036C149.564 59.3747 149.544 58.9407 149.502 58.734V58.424L149.688 54.828C149.688 53.2573 149.626 50.922 149.502 47.822C149.378 44.722 149.316 42.3867 149.316 40.816C149.316 40.32 149.482 39.886 149.812 39.514C150.143 39.142 150.556 38.956 151.052 38.956C152.375 38.956 153.036 40.196 153.036 42.676L152.912 50.364C152.83 52.6787 152.788 55.262 152.788 58.114C153.408 58.3207 154.524 58.424 156.136 58.424H158.43C158.513 58.176 158.554 57.928 158.554 57.68C158.554 55.696 158.43 52.7613 158.182 48.876C157.893 45.2387 157.748 42.2833 157.748 40.01C157.748 39.5553 157.914 39.1833 158.244 38.894C158.616 38.5633 159.05 38.398 159.546 38.398C159.836 38.398 160.249 38.5013 160.786 38.708L161.344 38.956C161.344 44.8253 161.551 52.658 161.964 62.454L162.522 78.14C162.522 78.7187 162.295 79.1733 161.84 79.504C161.427 79.8347 160.931 80 160.352 80ZM182.18 80.558C181.229 80.558 180.526 80.4133 180.072 80.124C179.617 79.8347 179.39 79.2973 179.39 78.512C179.39 77.272 179.183 75.164 178.77 72.188L178.522 70.886L172.384 69.956C172.136 70.9067 171.784 72.8287 171.33 75.722C171.082 77.7473 170.689 79.0907 170.152 79.752C169.862 80.124 169.449 80.31 168.912 80.31C168.416 80.31 167.961 80.1653 167.548 79.876C167.134 79.5453 166.928 79.1527 166.928 78.698L167.052 78.388L167.114 78.14C169.842 67.5173 171.908 57.0393 173.314 46.706C173.314 46.5407 173.334 46.272 173.376 45.9C173.417 45.4867 173.458 44.908 173.5 44.164C173.624 42.6347 173.748 41.4153 173.872 40.506C174.037 39.5967 174.285 38.9147 174.616 38.46H176.724C177.302 38.46 177.798 38.6047 178.212 38.894C178.625 39.142 178.832 39.514 178.832 40.01C178.832 43.1513 179.266 47.822 180.134 54.022C180.96 60.3873 181.374 64.8513 181.374 67.414C181.374 67.662 181.477 68.3027 181.684 69.336C181.89 70.2867 181.994 70.9067 181.994 71.196C181.994 71.4853 182.2 72.7253 182.614 74.916C182.986 76.9 183.172 78.1813 183.172 78.76V78.822C183.172 79.7313 182.841 80.31 182.18 80.558ZM178.088 68.654C177.964 68.034 177.902 67.2693 177.902 66.36C177.902 62.64 177.571 57.8867 176.91 52.1L176.29 45.652C174.512 55.3653 173.293 62.702 172.632 67.662C173.252 68.0753 175.07 68.406 178.088 68.654Z" fill="#583A3E"/>
<path d="M18.225 76.01V79.34H43.65V76.01H18.225ZM19.98 53.96V57.2H42.705V53.96H19.98ZM29.655 39.56V77.63H33.075V39.56H29.655ZM2.475 47.66V50.765H17.415V47.66H2.475ZM9.585 61.16V80.645H12.915V57.155L9.585 61.16ZM9.585 39.245V49.19H12.915V39.245H9.585ZM12.645 58.055L10.71 59.765C12.555 61.385 16.965 65.66 18.63 67.595L20.7 64.85C19.395 63.725 14.175 59.135 12.645 58.055ZM16.155 47.66V48.38C13.455 55.22 7.02 62.06 0.9 65.66C1.485 66.245 2.295 67.82 2.655 68.675C9.09 64.535 15.975 57.065 19.395 48.785L17.46 47.525L16.83 47.66H16.155ZM49.365 75.695L49.815 79.025C57.78 78.755 69.975 78.215 81.315 77.63L81.45 74.525C69.75 75.065 57.195 75.515 49.365 75.695ZM48.96 61.79V64.985H86.265V61.79H48.96ZM56.655 53.195V56.345H78.165V53.195H56.655ZM61.29 63.815C59.94 67.775 57.285 73.355 55.17 76.865L58.185 77.855C60.39 74.48 63 69.215 65.07 64.895L61.29 63.815ZM72 68.585C76.005 72.185 80.46 77.36 82.485 80.735L85.545 78.89C83.43 75.47 79.02 70.61 74.88 67.055L72 68.585ZM67.32 42.53C71.505 48.38 79.425 54.41 86.445 57.785C87.03 56.795 87.84 55.58 88.65 54.77C81.495 51.845 73.62 45.95 68.85 39.29H65.385C61.875 45.05 54.36 51.575 46.62 55.265C47.34 55.985 48.195 57.2 48.6 58.01C56.25 54.185 63.63 48.02 67.32 42.53Z" fill="#583A3E"/>
</svg>
