<svg width="72" height="76" viewBox="0 0 72 76" fill="none" xmlns="http://www.w3.org/2000/svg">
<path d="M38.9563 69.3791H27.1398C26.3563 69.3791 25.6049 69.049 25.0509 68.4614C24.4969 67.8737 24.1857 67.0767 24.1857 66.2457V46.8187H18.2774C17.4939 46.8187 16.7426 46.4886 16.1885 45.9009C15.6345 45.3133 15.3233 44.5163 15.3233 43.6853V32.4051C15.3233 31.574 15.6345 30.777 16.1885 30.1894C16.7426 29.6018 17.4939 29.2717 18.2774 29.2717H24.1857V23.9449C24.3928 19.1707 26.3736 14.6777 29.6951 11.4483C33.0165 8.21881 37.4084 6.51568 41.9105 6.71123H50.7728C51.5563 6.71123 52.3077 7.04136 52.8617 7.62898C53.4157 8.21661 53.727 9.0136 53.727 9.84463V21.1248C53.727 21.9559 53.4157 22.7529 52.8617 23.3405C52.3077 23.9281 51.5563 24.2582 50.7728 24.2582H41.9105V29.2717H50.7728C51.229 29.268 51.6797 29.3764 52.0897 29.5884C52.4997 29.8005 52.8579 30.1103 53.1361 30.4937C53.4113 30.8828 53.5973 31.3346 53.6793 31.8132C53.7614 32.2918 53.7372 32.7841 53.6088 33.2511L50.6547 44.5313C50.476 45.2091 50.0874 45.8033 49.5515 46.2182C49.0156 46.6332 48.3636 46.8447 47.7005 46.8187H41.9105V66.2457C41.9105 67.0767 41.5992 67.8737 41.0452 68.4614C40.4912 69.049 39.7398 69.3791 38.9563 69.3791ZM30.0939 63.1123H36.0022V43.6853C36.0022 42.8543 36.3134 42.0573 36.8674 41.4696C37.4214 40.882 38.1728 40.5519 38.9563 40.5519H45.5736L46.8734 35.5385H38.9563C38.1728 35.5385 37.4214 35.2083 36.8674 34.6207C36.3134 34.0331 36.0022 33.2361 36.0022 32.4051V23.9449C36.0781 22.3377 36.7339 20.8231 37.8338 19.7148C38.9337 18.6065 40.3934 17.9894 41.9105 17.9915H47.8187V12.978H41.9105C38.9764 12.7884 36.0903 13.8335 33.8781 15.8866C31.666 17.9397 30.3062 20.8352 30.0939 23.9449V32.4051C30.0939 33.2361 29.7827 34.0331 29.2287 34.6207C28.6747 35.2083 27.9233 35.5385 27.1398 35.5385H21.2316V40.5519H27.1398C27.9233 40.5519 28.6747 40.882 29.2287 41.4696C29.7827 42.0573 30.0939 42.8543 30.0939 43.6853V63.1123Z" fill="white"/>
</svg>
