<svg width="67" height="77" viewBox="0 0 67 77" fill="none" xmlns="http://www.w3.org/2000/svg">
<g clip-path="url(#clip0_27_144)">
<path d="M33.5149 21.2051C24.0033 21.2051 16.3312 28.9201 16.3312 38.485C16.3312 48.0498 24.0033 55.7648 33.5149 55.7648C43.0265 55.7648 50.6986 48.0498 50.6986 38.485C50.6986 28.9201 43.0265 21.2051 33.5149 21.2051ZM33.5149 49.7191C27.3683 49.7191 22.3433 44.6811 22.3433 38.485C22.3433 32.2889 27.3533 27.2508 33.5149 27.2508C39.6765 27.2508 44.6866 32.2889 44.6866 38.485C44.6866 44.6811 39.6616 49.7191 33.5149 49.7191ZM55.4096 20.4983C55.4096 22.7391 53.6149 24.5287 51.4016 24.5287C49.1732 24.5287 47.3935 22.724 47.3935 20.4983C47.3935 18.2725 49.1882 16.4678 51.4016 16.4678C53.6149 16.4678 55.4096 18.2725 55.4096 20.4983ZM66.7906 24.5889C66.5364 19.1899 65.31 14.4074 61.3768 10.4672C57.4585 6.52696 52.7027 5.29376 47.3337 5.02306C41.8002 4.70724 25.2147 4.70724 19.6812 5.02306C14.3272 5.27872 9.57141 6.51193 5.63816 10.4522C1.7049 14.3924 0.493513 19.1748 0.224316 24.5738C-0.0897461 30.1383 -0.0897461 46.8166 0.224316 52.3811C0.478557 57.7801 1.7049 62.5625 5.63816 66.5027C9.57141 70.443 14.3123 71.6762 19.6812 71.9469C25.2147 72.2627 41.8002 72.2627 47.3337 71.9469C52.7027 71.6912 57.4585 70.458 61.3768 66.5027C65.2951 62.5625 66.5214 57.7801 66.7906 52.3811C67.1047 46.8166 67.1047 30.1533 66.7906 24.5889ZM59.6419 58.3516C58.4754 61.2992 56.2172 63.5701 53.271 64.7582C48.8591 66.5178 38.3904 66.1117 33.5149 66.1117C28.6395 66.1117 18.1558 66.5027 13.7589 64.7582C10.8277 63.5852 8.56941 61.3143 7.38793 58.3516C5.63816 53.915 6.04195 43.3877 6.04195 38.485C6.04195 33.5822 5.65311 23.0399 7.38793 18.6184C8.55445 15.6707 10.8127 13.3998 13.7589 12.2117C18.1707 10.4522 28.6395 10.8582 33.5149 10.8582C38.3904 10.8582 48.8741 10.4672 53.271 12.2117C56.2022 13.3848 58.4605 15.6557 59.6419 18.6184C61.3917 23.0549 60.9879 33.5822 60.9879 38.485C60.9879 43.3877 61.3917 53.9301 59.6419 58.3516Z" fill="white"/>
</g>
<defs>
<clipPath id="clip0_27_144">
<rect width="67" height="77" fill="white"/>
</clipPath>
</defs>
</svg>
