<svg width="81" height="81" viewBox="0 0 81 81" fill="none" xmlns="http://www.w3.org/2000/svg">
<path d="M29.2674 66.7949H29.0002C23.6178 66.7478 18.3131 65.5043 13.4704 63.1546C12.5796 62.7362 11.8462 62.0436 11.3774 61.1782C10.9087 60.3128 10.7292 59.3201 10.8654 58.3454C11.0135 57.364 11.4679 56.4546 12.1636 55.7469C12.8593 55.0391 13.7609 54.5693 14.7395 54.4045C17.7406 54.0041 20.6278 52.9924 23.2225 51.4321C18.7177 47.9101 15.2497 43.2349 13.1859 37.9022C11.1222 32.5694 10.5396 26.7776 11.5 21.1406C11.6302 20.2478 12.0142 19.4111 12.6062 18.7302C13.1983 18.0493 13.9736 17.5529 14.8397 17.2999C15.6824 17.0353 16.5842 17.024 17.4332 17.2674C18.2823 17.5108 19.0411 17.9983 19.6155 18.6692C21.566 21.2267 24.017 23.3601 26.819 24.9391C29.6211 26.5182 32.7155 27.5098 35.9135 27.8535C36.0662 23.9188 37.7571 20.2012 40.6225 17.5003C42.0533 16.1303 43.7424 15.0587 45.5914 14.348C47.4405 13.6372 49.4125 13.3016 51.3925 13.3607C53.3726 13.4198 55.3211 13.8723 57.1245 14.692C58.9279 15.5116 60.5501 16.682 61.8967 18.1349C62.2475 18.445 62.6834 18.6427 63.1479 18.7022C63.6123 18.7618 64.084 18.6805 64.5017 18.4688C65.298 18.0933 66.1847 17.9519 67.0583 18.0612C67.9319 18.1705 68.7564 18.526 69.4356 19.0862C70.1149 19.6464 70.6208 20.3881 70.8944 21.225C71.1679 22.0618 71.1979 22.9592 70.9808 23.8124C70.2105 26.9856 68.751 29.9502 66.7059 32.4958C66.2552 41.9965 62.0666 50.9337 55.0534 57.3588C48.0402 63.784 38.7712 67.1758 29.2674 66.7949ZM29.2674 60.1154H29.5346C33.4176 60.249 37.2885 59.6104 40.9229 58.2367C44.5572 56.8631 47.8828 54.7816 50.7067 52.113C53.5306 49.4445 55.7966 46.2419 57.3735 42.6909C58.9504 39.14 59.8067 35.3114 59.8928 31.427C59.948 30.3625 60.387 29.354 61.1285 28.5883C61.9431 27.5571 62.6378 26.4367 63.1992 25.2485C61.996 25.2508 60.806 24.9991 59.7067 24.51C58.6075 24.0208 57.6239 23.3051 56.8203 22.4097C56.0475 21.6434 55.1295 21.039 54.1202 20.6319C53.1109 20.2247 52.0305 20.023 50.9423 20.0385C49.8432 20.0101 48.7493 20.199 47.7234 20.5945C46.6975 20.9899 45.7598 21.5841 44.9642 22.3429C43.8907 23.3616 43.1036 24.6442 42.6816 26.0626C42.2596 27.481 42.2175 28.9853 42.5596 30.4251L43.4279 34.2324L39.5204 34.4996C35.5164 34.8261 31.4892 34.2784 27.7178 32.8944C23.9464 31.5104 20.5209 29.3232 17.6785 26.4842C17.5566 30.8806 18.6564 35.2247 20.8556 39.0335C23.0548 42.8423 26.2672 45.9666 30.1357 48.059L33.3085 49.8624L31.2044 52.8682C28.9291 55.8523 25.8114 58.0859 22.2539 59.2805C24.536 59.8525 26.8814 60.133 29.234 60.1154H29.2674Z" fill="white"/>
</svg>
